<svg width="23" height="21" viewBox="0 0 23 21" fill="none" xmlns="http://www.w3.org/2000/svg">
<g id="ph:arrow-up-bold">
<path id="Vector" d="M14.79 12.9655C14.6939 12.9657 14.5988 12.9484 14.5101 12.9148C14.4213 12.8812 14.3407 12.8319 14.2728 12.7696C14.2049 12.7074 14.151 12.6335 14.1144 12.5521C14.0777 12.4707 14.0589 12.3836 14.0591 12.2955V8.23695L7.73893 14.0304C7.6021 14.1558 7.41651 14.2263 7.223 14.2263C7.02949 14.2263 6.84391 14.1558 6.70707 14.0304C6.57024 13.905 6.49337 13.7349 6.49337 13.5575C6.49337 13.3801 6.57024 13.21 6.70707 13.0845L13.0272 7.29108L8.59881 7.2903C8.40497 7.2903 8.21906 7.21971 8.08199 7.09406C7.94492 6.96841 7.86791 6.798 7.86791 6.6203C7.86791 6.44261 7.94492 6.2722 8.08199 6.14655C8.21906 6.0209 8.40497 5.95031 8.59881 5.95031L14.79 5.95031C14.886 5.95016 14.9811 5.96738 15.0699 6.001C15.1586 6.03462 15.2393 6.08396 15.3072 6.14621C15.3751 6.20845 15.4289 6.28237 15.4656 6.36373C15.5022 6.44508 15.521 6.53228 15.5209 6.6203L15.5209 12.2955C15.521 12.3836 15.5022 12.4707 15.4656 12.5521C15.4289 12.6335 15.3751 12.7074 15.3072 12.7696C15.2393 12.8319 15.1586 12.8812 15.0699 12.9148C14.9811 12.9484 14.886 12.9657 14.79 12.9655Z" fill="#4CBF93"/>
</g>
</svg>
